<?xml version="1.0" encoding="utf-8"?>
<!-- Generator: Adobe Illustrator 24.0.3, SVG Export Plug-In . SVG Version: 6.00 Build 0)  -->
<svg version="1.1" xmlns="http://www.w3.org/2000/svg" xmlns:xlink="http://www.w3.org/1999/xlink" x="0px" y="0px"
	 viewBox="0 0 800 124" style="enable-background:new 0 0 800 124;" xml:space="preserve">
<style type="text/css">
	.st0{fill:#FFFFFF;}
</style>
<g id="Ebene_3">
</g>
<g id="Ebene_2">
	<rect class="st0" width="15" height="124"/>
	<g>
		<path class="st0" d="M90.5,36.1c5.7,4.3,8.5,12.2,8.5,23.7C99,71,96.2,79,90.6,83.6c-5.6,4.6-12.6,6.9-21.2,6.9H52.9V29.7h15
			C77.3,29.7,84.8,31.8,90.5,36.1z M64.5,38.4v43.4h5.7c5.2,0,9.2-1.6,12.1-4.8c2.9-3.2,4.4-8.9,4.4-17.2c0-5.7-0.7-10.2-2.2-13.3
			c-1.5-3.1-3.5-5.3-5.9-6.4c-2.4-1.1-5.4-1.7-8.8-1.7H64.5z"/>
		<path class="st0" d="M120.2,22.3c1.3,1.3,2,2.9,2,4.9s-0.7,3.6-2,4.8c-1.3,1.3-3,1.9-5.1,1.9c-2.1,0-3.7-0.6-5.1-1.9
			c-1.3-1.3-2-2.9-2-4.8s0.7-3.6,2-4.9c1.3-1.3,3-2,5.1-2C117.2,20.4,118.9,21,120.2,22.3z M120.8,43.9v46.6h-11.3V43.9H120.8z"/>
		<path class="st0" d="M174.9,46.4c-3,1.1-7.5,1.6-13.5,1.6c2.9,1.3,5,2.9,6.4,4.8c1.4,1.9,2.1,4.3,2.1,7.2c0,3.1-0.7,5.8-2.2,8.1
			c-1.5,2.3-3.7,4.2-6.5,5.5c-2.8,1.4-6.2,2-10,2c-2.1,0-4-0.2-5.5-0.7c-1.3,0.9-1.9,2-1.9,3.4c0,2.2,1.9,3.3,5.6,3.3h7.1
			c3.4,0,6.4,0.6,8.9,1.7s4.5,2.7,5.9,4.7c1.4,2,2.1,4.3,2.1,6.8c0,4.7-2,8.3-6,11c-4,2.6-9.7,3.9-17.2,3.9c-5.4,0-9.6-0.6-12.7-1.7
			c-3.1-1.1-5.3-2.7-6.6-4.8c-1.3-2.1-1.9-4.8-1.9-8.1H139c0,1.6,0.3,2.9,0.9,3.9c0.6,0.9,1.7,1.6,3.3,2.1c1.6,0.5,3.9,0.7,7,0.7
			c4.3,0,7.3-0.5,9.1-1.6c1.8-1.1,2.6-2.6,2.6-4.6c0-1.8-0.7-3.1-2-4.1c-1.3-1-3.3-1.5-5.9-1.5h-7c-4.4,0-7.7-0.8-9.9-2.6
			c-2.2-1.7-3.3-3.8-3.3-6.4c0-1.6,0.5-3.2,1.5-4.8c1-1.5,2.3-2.8,4-3.9c-2.8-1.5-4.9-3.3-6.2-5.4c-1.3-2.1-2-4.7-2-7.7
			c0-3.3,0.8-6.3,2.5-8.8c1.6-2.5,3.9-4.5,6.8-5.9c2.9-1.4,6.2-2.1,10-2.1c4.9,0.1,8.9-0.2,11.9-1.1c3-0.8,6.3-2.2,9.8-4.1
			L174.9,46.4z M144.5,52.7c-1.4,1.6-2.2,3.8-2.2,6.5c0,2.8,0.7,5,2.2,6.7c1.5,1.6,3.5,2.5,6.1,2.5c2.7,0,4.8-0.8,6.2-2.4
			c1.4-1.6,2.1-3.9,2.1-6.8c0-5.9-2.8-8.8-8.4-8.8C148,50.3,146,51.1,144.5,52.7z"/>
		<path class="st0" d="M192.3,22.3c1.3,1.3,2,2.9,2,4.9s-0.7,3.6-2,4.8c-1.3,1.3-3,1.9-5.1,1.9c-2.1,0-3.7-0.6-5.1-1.9
			c-1.3-1.3-2-2.9-2-4.8s0.7-3.6,2-4.9c1.3-1.3,3-2,5.1-2C189.3,20.4,191,21,192.3,22.3z M192.9,43.9v46.6h-11.3V43.9H192.9z"/>
		<path class="st0" d="M233.1,88.3c-1.6,1.2-3.5,2.1-5.5,2.6c-2,0.6-4.1,0.9-6.2,0.9c-4.6-0.1-8.1-1.4-10.4-3.9
			c-2.4-2.6-3.6-6.3-3.6-11.3V52h-7.3v-8.1h7.3V33.6l11.3-1.3v11.6h10.8l-1.1,8.1h-9.7v24.3c0,2.3,0.4,3.9,1.2,4.9
			c0.8,1,2,1.5,3.7,1.5c1.7,0,3.5-0.6,5.5-1.7L233.1,88.3z"/>
		<path class="st0" d="M273.8,82.2c0.6,0.9,1.5,1.5,2.7,2l-2.4,7.5c-2.6-0.2-4.8-0.9-6.5-1.9c-1.7-1.1-2.9-2.7-3.8-4.8
			c-1.6,2.3-3.6,4.1-5.9,5.2c-2.4,1.1-5,1.7-8,1.7c-4.6,0-8.3-1.3-11-4c-2.7-2.6-4-6.1-4-10.4c0-5,1.8-8.9,5.5-11.6
			c3.7-2.7,8.9-4,15.7-4h5.8v-2.6c0-3-0.7-5.1-2.1-6.3c-1.4-1.2-3.6-1.8-6.6-1.8c-3.4,0-7.5,0.8-12.3,2.5l-2.6-7.7
			c5.8-2.2,11.4-3.3,16.9-3.3c11.9,0,17.9,5.3,17.9,16v19.5C273,80,273.2,81.3,273.8,82.2z M261.9,77.9v-9.4h-4.7
			c-7.3,0-10.9,2.7-10.9,8.1c0,2.2,0.6,4,1.7,5.2c1.1,1.2,2.8,1.8,4.9,1.8C256.7,83.6,259.7,81.7,261.9,77.9z"/>
		<path class="st0" d="M288.3,88.7c-2-2.1-3-5-3-8.8V25.3l11.3-1.2v55.4c0,2.2,0.9,3.3,2.6,3.3c0.9,0,1.8-0.1,2.6-0.4l2.4,7.9
			c-2.3,1.1-4.8,1.6-7.5,1.6C293.2,91.8,290.4,90.8,288.3,88.7z"/>
		<path class="st0" d="M340.7,30.2c3.2,1.2,6.1,3.1,8.9,5.6l-5.7,6.6c-2.2-1.8-4.4-3.1-6.6-4c-2.2-0.8-4.6-1.2-7.1-1.2
			c-2.8,0-5.1,0.6-6.8,1.9c-1.7,1.3-2.6,3-2.6,5.3c0,1.5,0.3,2.8,1,3.8c0.7,1,1.9,1.9,3.7,2.8c1.8,0.9,4.4,1.8,7.8,2.9
			c6,1.9,10.5,4.2,13.5,7c3,2.8,4.5,6.9,4.5,12.2c0,3.6-0.9,6.9-2.8,9.7c-1.8,2.8-4.5,5-8,6.6c-3.5,1.6-7.6,2.4-12.3,2.4
			c-4.6,0-8.8-0.7-12.5-2.2c-3.7-1.5-6.8-3.5-9.5-6.1l6-6.7c2.3,2,4.8,3.5,7.3,4.5c2.5,1,5.3,1.5,8.4,1.5c3.3,0,6-0.8,8.1-2.4
			c2.1-1.6,3.1-3.8,3.1-6.7c0-1.8-0.4-3.2-1.1-4.4c-0.7-1.1-1.9-2.2-3.6-3.1c-1.7-0.9-4.2-1.9-7.4-2.9c-6.5-2-11.1-4.4-14-7.2
			c-2.9-2.8-4.3-6.5-4.3-11.1c0-3.3,0.9-6.3,2.6-8.8c1.8-2.5,4.2-4.5,7.3-5.9c3.1-1.4,6.7-2.1,10.7-2.1
			C333.8,28.4,337.6,29,340.7,30.2z"/>
		<path class="st0" d="M396,49.2c3.8,4.4,5.8,10.4,5.8,18c0,4.9-0.9,9.2-2.6,12.9c-1.8,3.7-4.3,6.6-7.6,8.7
			c-3.3,2.1-7.2,3.1-11.7,3.1c-6.9,0-12.2-2.2-16.1-6.6c-3.9-4.4-5.8-10.4-5.8-18.1c0-4.9,0.9-9.2,2.6-12.8s4.3-6.6,7.6-8.6
			c3.3-2.1,7.2-3.1,11.7-3.1C386.8,42.6,392.2,44.8,396,49.2z M369.9,67.2c0,5.5,0.8,9.6,2.5,12.2s4.2,3.9,7.5,3.9
			c3.3,0,5.9-1.3,7.5-4c1.7-2.6,2.5-6.7,2.5-12.1c0-5.5-0.8-9.5-2.5-12.1c-1.7-2.6-4.2-3.9-7.4-3.9
			C373.2,51.2,369.9,56.5,369.9,67.2z"/>
		<path class="st0" d="M415,88.7c-2-2.1-3-5-3-8.8V25.3l11.3-1.2v55.4c0,2.2,0.9,3.3,2.6,3.3c0.9,0,1.8-0.1,2.6-0.4l2.4,7.9
			c-2.3,1.1-4.8,1.6-7.5,1.6C419.8,91.8,417,90.8,415,88.7z"/>
		<path class="st0" d="M473.1,82.2c0.6,0.9,1.5,1.5,2.7,2l-2.4,7.5c-2.6-0.2-4.8-0.9-6.5-1.9c-1.7-1.1-2.9-2.7-3.8-4.8
			c-1.6,2.3-3.6,4.1-5.9,5.2c-2.4,1.1-5,1.7-8,1.7c-4.6,0-8.3-1.3-11-4c-2.7-2.6-4-6.1-4-10.4c0-5,1.8-8.9,5.5-11.6
			c3.7-2.7,8.9-4,15.7-4h5.8v-2.6c0-3-0.7-5.1-2.1-6.3c-1.4-1.2-3.6-1.8-6.6-1.8c-3.4,0-7.5,0.8-12.3,2.5l-2.6-7.7
			c5.8-2.2,11.4-3.3,16.9-3.3c11.9,0,17.9,5.3,17.9,16v19.5C472.3,80,472.6,81.3,473.1,82.2z M461.2,77.9v-9.4h-4.7
			c-7.3,0-10.9,2.7-10.9,8.1c0,2.2,0.6,4,1.7,5.2c1.1,1.2,2.8,1.8,4.9,1.8C456,83.6,459,81.7,461.2,77.9z"/>
		<path class="st0" d="M513.6,43.3l-1.9,10.9c-1.4-0.4-2.8-0.5-4.1-0.5c-2.8,0-4.9,1-6.5,2.9c-1.6,2-2.8,5-3.8,9v24.8h-11.3V43.9
			h9.8l1.1,9.2c1.1-3.3,2.7-5.9,4.8-7.7c2.1-1.8,4.5-2.7,7.3-2.7C510.6,42.7,512.2,42.9,513.6,43.3z"/>
		<path class="st0" d="M559.9,46.4c-3,1.1-7.5,1.6-13.5,1.6c2.9,1.3,5,2.9,6.4,4.8c1.4,1.9,2.1,4.3,2.1,7.2c0,3.1-0.7,5.8-2.2,8.1
			c-1.5,2.3-3.7,4.2-6.5,5.5c-2.8,1.4-6.2,2-10,2c-2.1,0-4-0.2-5.5-0.7c-1.3,0.9-1.9,2-1.9,3.4c0,2.2,1.9,3.3,5.6,3.3h7.1
			c3.4,0,6.4,0.6,8.9,1.7s4.5,2.7,5.9,4.7c1.4,2,2.1,4.3,2.1,6.8c0,4.7-2,8.3-6,11c-4,2.6-9.7,3.9-17.2,3.9c-5.4,0-9.6-0.6-12.7-1.7
			c-3.1-1.1-5.3-2.7-6.6-4.8c-1.3-2.1-1.9-4.8-1.9-8.1h10.1c0,1.6,0.3,2.9,0.9,3.9c0.6,0.9,1.7,1.6,3.3,2.1c1.6,0.5,3.9,0.7,7,0.7
			c4.3,0,7.3-0.5,9.1-1.6c1.8-1.1,2.6-2.6,2.6-4.6c0-1.8-0.7-3.1-2-4.1c-1.3-1-3.3-1.5-5.9-1.5h-7c-4.4,0-7.7-0.8-9.9-2.6
			c-2.2-1.7-3.3-3.8-3.3-6.4c0-1.6,0.5-3.2,1.5-4.8c1-1.5,2.3-2.8,4-3.9c-2.8-1.5-4.9-3.3-6.2-5.4c-1.3-2.1-2-4.7-2-7.7
			c0-3.3,0.8-6.3,2.5-8.8c1.6-2.5,3.9-4.5,6.8-5.9c2.9-1.4,6.2-2.1,10-2.1c4.9,0.1,8.9-0.2,11.9-1.1c3-0.8,6.3-2.2,9.8-4.1
			L559.9,46.4z M529.6,52.7c-1.4,1.6-2.2,3.8-2.2,6.5c0,2.8,0.7,5,2.2,6.7c1.5,1.6,3.5,2.5,6.1,2.5c2.7,0,4.8-0.8,6.2-2.4
			c1.4-1.6,2.1-3.9,2.1-6.8c0-5.9-2.8-8.8-8.4-8.8C533,50.3,531.1,51.1,529.6,52.7z"/>
		<path class="st0" d="M594.3,43.3l-1.9,10.9c-1.4-0.4-2.8-0.5-4.1-0.5c-2.8,0-4.9,1-6.5,2.9c-1.6,2-2.8,5-3.8,9v24.8h-11.3V43.9
			h9.8l1.1,9.2c1.1-3.3,2.7-5.9,4.8-7.7c2.1-1.8,4.5-2.7,7.3-2.7C591.4,42.7,592.9,42.9,594.3,43.3z"/>
		<path class="st0" d="M633.6,82.2c0.6,0.9,1.5,1.5,2.7,2l-2.4,7.5c-2.6-0.2-4.8-0.9-6.5-1.9c-1.7-1.1-2.9-2.7-3.8-4.8
			c-1.6,2.3-3.6,4.1-5.9,5.2c-2.4,1.1-5,1.7-8,1.7c-4.6,0-8.3-1.3-11-4c-2.7-2.6-4-6.1-4-10.4c0-5,1.8-8.9,5.5-11.6
			c3.7-2.7,8.9-4,15.7-4h5.8v-2.6c0-3-0.7-5.1-2.1-6.3c-1.4-1.2-3.6-1.8-6.6-1.8c-3.4,0-7.5,0.8-12.3,2.5L598,46
			c5.8-2.2,11.4-3.3,16.9-3.3c11.9,0,17.9,5.3,17.9,16v19.5C632.7,80,633,81.3,633.6,82.2z M621.6,77.9v-9.4H617
			c-7.3,0-10.9,2.7-10.9,8.1c0,2.2,0.6,4,1.7,5.2c1.1,1.2,2.8,1.8,4.9,1.8C616.5,83.6,619.5,81.7,621.6,77.9z"/>
		<path class="st0" d="M683.5,49c2.8,4.3,4.2,10.3,4.2,18c0,4.8-0.7,9.1-2.2,12.8c-1.4,3.7-3.6,6.6-6.3,8.8
			c-2.8,2.1-6.1,3.2-9.9,3.2c-4.9,0-8.8-1.7-11.7-5.1v21.7l-11.3,1.2V43.9h9.9l0.6,5.7c1.8-2.3,3.9-4.1,6.2-5.3
			c2.3-1.2,4.8-1.8,7.4-1.8C676.3,42.6,680.7,44.8,683.5,49z M675.9,67.2c0-5.7-0.7-9.8-2.2-12.3c-1.5-2.5-3.7-3.8-6.6-3.8
			c-1.9,0-3.6,0.6-5.3,1.7c-1.6,1.1-3.1,2.7-4.2,4.6v20.9c2.2,3.2,5,4.8,8.5,4.8C672.7,83.2,675.9,77.8,675.9,67.2z"/>
		<path class="st0" d="M733.3,46.4c2.3,2.5,3.5,6,3.5,10.4v33.7h-11.3V58.5c0-2.8-0.5-4.7-1.5-5.8c-1-1.1-2.4-1.7-4.3-1.7
			c-1.9,0-3.6,0.6-5.2,1.8c-1.6,1.2-3.1,2.9-4.6,5.1v32.5h-11.3V25.4l11.3-1.1v25.3c3.8-4.6,8.3-6.9,13.6-6.9
			C727.7,42.6,731,43.9,733.3,46.4z"/>
		<path class="st0" d="M771.9,90.7c-1.9,5.7-4.7,10.2-8.5,13.4c-3.8,3.2-9,5.1-15.7,5.6l-1.1-8.2c3-0.5,5.5-1.1,7.3-2
			c1.8-0.9,3.3-2,4.4-3.4c1.1-1.4,2.1-3.3,3.1-5.6h-3.9l-14.8-46.6h12L764.9,83l10.6-39.1h11.6L771.9,90.7z"/>
	</g>
</g>
<g id="Ebene_1">
</g>
</svg>
